<svg width="18" height="21" viewBox="0 0 18 21" fill="none" xmlns="http://www.w3.org/2000/svg">
<ellipse cx="8.95543" cy="5.94064" rx="5.01537" ry="4.94064" fill="#B7076B" stroke="#B7076B" stroke-width="1.5" stroke-linecap="round" stroke-linejoin="round"/>
<path fill-rule="evenodd" clip-rule="evenodd" d="M1.00002 17.0571C0.998669 16.7098 1.07752 16.3667 1.23061 16.0539C1.71101 15.1074 3.06573 14.6057 4.18987 14.3786C5.00059 14.2081 5.82252 14.0943 6.64951 14.0378C8.18064 13.9054 9.72061 13.9054 11.2517 14.0378C12.0787 14.0949 12.9005 14.2088 13.7114 14.3786C14.8355 14.6057 16.1902 15.06 16.6706 16.0539C16.9785 16.6916 16.9785 17.4321 16.6706 18.0699C16.1902 19.0637 14.8355 19.518 13.7114 19.7357C12.9016 19.9132 12.0794 20.0302 11.2517 20.0859C10.0055 20.1899 8.7535 20.2089 7.50462 20.1427C7.21638 20.1427 6.93775 20.1427 6.64951 20.0859C5.82496 20.0309 5.00588 19.9138 4.19948 19.7357C3.06573 19.518 1.72062 19.0637 1.23061 18.0699C1.0783 17.7534 0.99953 17.4074 1.00002 17.0571Z" fill="#B7076B" stroke="#B7076B" stroke-width="1.5" stroke-linecap="round" stroke-linejoin="round"/>
</svg>
