<svg width="21" height="22" viewBox="0 0 21 22" fill="none" xmlns="http://www.w3.org/2000/svg">
<path d="M7.91988 19.6578V16.6189C7.91988 15.8432 8.55335 15.2143 9.33477 15.2143H12.1913C12.5665 15.2143 12.9264 15.3623 13.1917 15.6257C13.4571 15.8891 13.6062 16.2464 13.6062 16.6189V19.6578C13.6038 19.9803 13.7312 20.2904 13.9601 20.5193C14.189 20.7482 14.5004 20.8769 14.8253 20.8769H16.7741C17.6843 20.8793 18.558 20.522 19.2024 19.8839C19.8468 19.2458 20.209 18.3794 20.209 17.4758V8.81845C20.209 8.08857 19.8831 7.39624 19.3191 6.92796L12.6896 1.67171C11.5364 0.750109 9.88405 0.779865 8.76525 1.74238L2.28699 6.92796C1.69637 7.38243 1.34337 8.07682 1.32593 8.81845V17.467C1.32593 19.3502 2.86379 20.8769 4.76083 20.8769H6.66516C7.33992 20.8769 7.88829 20.3365 7.89318 19.6666L7.91988 19.6578Z" stroke="black" stroke-opacity="0.5" stroke-width="1.5"/>
</svg>
