<svg width="20" height="20" viewBox="0 0 20 20" fill="none" xmlns="http://www.w3.org/2000/svg">
<path d="M6.91988 18.6578V15.6189C6.91988 14.8432 7.55335 14.2143 8.33477 14.2143H11.1913C11.5665 14.2143 11.9264 14.3623 12.1917 14.6257C12.4571 14.8891 12.6062 15.2464 12.6062 15.6189V18.6578C12.6038 18.9803 12.7312 19.2904 12.9601 19.5193C13.189 19.7482 13.5004 19.8769 13.8253 19.8769H15.7741C16.6843 19.8793 17.558 19.522 18.2024 18.8839C18.8468 18.2458 19.209 17.3794 19.209 16.4758V7.81845C19.209 7.08857 18.8831 6.39624 18.3191 5.92796L11.6896 0.67171C10.5364 -0.249891 8.88405 -0.220135 7.76525 0.742382L1.28699 5.92796C0.696375 6.38243 0.343372 7.07682 0.325928 7.81845V16.467C0.325928 18.3502 1.86379 19.8769 3.76083 19.8769H5.66516C6.33992 19.8769 6.88829 19.3365 6.89318 18.6666L6.91988 18.6578Z" fill="#B7076B"/>
</svg>
