<svg width="47" height="43" viewBox="0 0 47 43" fill="none" xmlns="http://www.w3.org/2000/svg">
<rect width="47" height="43" rx="10" fill="#B7076B"/>
<path fill-rule="evenodd" clip-rule="evenodd" d="M21.6583 17.7839C21.6583 19.1839 20.5041 20.3187 19.0792 20.3187C17.655 20.3187 16.5 19.1839 16.5 17.7839C16.5 16.3847 17.655 15.25 19.0792 15.25C20.5041 15.25 21.6583 16.3847 21.6583 17.7839ZM30.37 16.6737C30.9933 16.6737 31.5 17.1715 31.5 17.7839C31.5 18.3971 30.9933 18.8949 30.37 18.8949H25.4384C24.8142 18.8949 24.3075 18.3971 24.3075 17.7839C24.3075 17.1715 24.8142 16.6737 25.4384 16.6737H30.37ZM17.6308 24.9685H22.5625C23.1866 24.9685 23.6933 25.4662 23.6933 26.0795C23.6933 26.6919 23.1866 27.1905 22.5625 27.1905H17.6308C17.0067 27.1905 16.5 26.6919 16.5 26.0795C16.5 25.4662 17.0067 24.9685 17.6308 24.9685ZM28.9208 28.5833C30.3458 28.5833 31.5 27.4486 31.5 26.0494C31.5 24.6494 30.3458 23.5147 28.9208 23.5147C27.4967 23.5147 26.3417 24.6494 26.3417 26.0494C26.3417 27.4486 27.4967 28.5833 28.9208 28.5833Z" fill="white"/>
</svg>
